<?xml version="1.0" standalone="no"?>
<!DOCTYPE svg PUBLIC "-//W3C//DTD SVG 20010904//EN"
 "http://www.w3.org/TR/2001/REC-SVG-20010904/DTD/svg10.dtd">
<svg version="1.0" xmlns="http://www.w3.org/2000/svg"
 width="512.000000pt" height="512.000000pt" viewBox="0 0 512.000000 512.000000"
 preserveAspectRatio="xMidYMid meet">
<metadata>
Created by potrace 1.11, written by Peter Selinger 2001-2013
</metadata>
<g transform="translate(0.000000,512.000000) scale(0.100000,-0.100000)"
fill="#000000" stroke="none">
<path d="M2510 3833 c-88 -35 -1840 -920 -1852 -935 -10 -11 -18 -31 -18 -44
0 -58 12 -66 331 -225 l309 -154 0 -299 c0 -200 4 -312 12 -338 6 -22 29 -59
50 -83 27 -30 38 -52 38 -74 0 -43 21 -90 56 -125 29 -28 29 -28 30 -162 1
-105 5 -139 18 -159 31 -47 108 -44 133 5 8 16 13 71 13 158 0 74 3 132 8 130
4 -2 60 -29 125 -61 128 -63 281 -118 397 -142 170 -36 251 -43 445 -40 99 2
194 6 210 9 17 4 55 11 85 17 243 47 462 138 676 280 135 91 236 188 252 245
8 28 12 139 12 340 l0 299 309 154 c212 106 313 161 321 177 14 25 6 86 -13
102 -6 6 -424 216 -927 468 -929 464 -964 480 -1020 457z"/>
</g>
</svg>
